# xmcd
#
# Track frame offsets:
#	150
#	59244
#	84371
#	103898
#	137790
#	164329
#	208750
#	235213
#	257582
#	290628
#	319597
#
# Disc length: 4637 seconds
#
# Revision: 1
# Processed by: cddbd v1.5.2PL0 Copyright (c) Steve Scherf et al.
# Submitted via: audiograbber 1.83.01
#
DISCID=a6121b0b
DTITLE=Blues Bureau - Slow Jams Volume One
DYEAR=2009
DGENRE=Blues
TTITLE0=Something Wicked - Chris Duarte
TTITLE1=You've Got To Love Her With A Feeling - Rick Derringer
TTITLE2=Third Degree - Leslie West
TTITLE3=Freedom From My Demons - Eric Gales
TTITLE4=Too Much Is Never Enough - Pat Travers
TTITLE5=Blues WIthout You - Stoney Curtis Band
TTITLE6=Voyager - Schenker-Pattison Summit
TTITLE7=Blues For Miles - Neal Schon
TTITLE8=Worried Life Blues - Michael Landau
TTITLE9=Freedom Fighter - Marc Ford
TTITLE10=That Hurts - Scott Henderson
EXTD=
EXTT0=
EXTT1=
EXTT2=
EXTT3=
EXTT4=
EXTT5=
EXTT6=
EXTT7=
EXTT8=
EXTT9=
EXTT10=
PLAYORDER=
